<svg width="38" height="38" viewBox="0 0 38 38" fill="none" xmlns="http://www.w3.org/2000/svg">
<path d="M22.2292 5.76073L21.8911 5.28715C20.4745 3.30402 17.5272 3.30402 16.1105 5.28715L15.7724 5.76073C15.0244 6.80778 13.7687 7.36847 12.4899 7.22636L10.9821 7.05884C8.71993 6.80748 6.80846 8.71895 7.05982 10.9811L7.22734 12.4889C7.36945 13.7678 6.80876 15.0235 5.76171 15.7714L5.28813 16.1096C3.305 17.5262 3.305 20.4735 5.28813 21.8901L5.76171 22.2282C6.80876 22.9763 7.36945 24.232 7.22734 25.5108L7.05982 27.0186C6.80846 29.2807 8.71993 31.1923 10.9821 30.9408L12.4899 30.7733C13.7687 30.6313 15.0244 31.1919 15.7724 32.239L16.1105 32.7124C17.5272 34.6956 20.4745 34.6956 21.8911 32.7124L22.2292 32.239C22.9772 31.1919 24.233 30.6313 25.5118 30.7733L27.0195 30.9408C29.2817 31.1923 31.1933 29.2807 30.9418 27.0186L30.7743 25.5108C30.6322 24.232 31.1929 22.9763 32.24 22.2282L32.7134 21.8901C34.6966 20.4735 34.6966 17.5262 32.7134 16.1096L32.24 15.7714C31.1929 15.0235 30.6322 13.7678 30.7743 12.4889L30.9418 10.9811C31.1933 8.71895 29.2817 6.80748 27.0195 7.05884L25.5118 7.22636C24.233 7.36847 22.9772 6.80778 22.2292 5.76073Z" fill="#FFCEAB"/>
<path d="M13.432 25V23.146L16.978 20.158C17.266 19.918 17.584 19.654 17.932 19.366C18.28 19.078 18.61 18.766 18.922 18.43C19.246 18.082 19.516 17.722 19.732 17.35C19.948 16.978 20.056 16.588 20.056 16.18C20.056 15.568 19.87 15.088 19.498 14.74C19.138 14.392 18.622 14.218 17.95 14.218C17.362 14.218 16.882 14.344 16.51 14.596C16.138 14.848 15.904 15.19 15.808 15.622H13.594C13.678 14.818 13.936 14.164 14.368 13.66C14.812 13.144 15.358 12.76 16.006 12.508C16.654 12.244 17.332 12.112 18.04 12.112C18.844 12.112 19.564 12.262 20.2 12.562C20.836 12.85 21.34 13.282 21.712 13.858C22.096 14.422 22.288 15.112 22.288 15.928C22.288 16.66 22.144 17.32 21.856 17.908C21.58 18.496 21.202 19.036 20.722 19.528C20.254 20.008 19.738 20.482 19.174 20.95L16.744 22.948H22.324V25H13.432Z" fill="#FF6B00"/>
</svg>
