<svg width="38" height="38" viewBox="0 0 38 38" fill="none" xmlns="http://www.w3.org/2000/svg">
<path d="M22.2292 5.76073L21.8911 5.28715C20.4745 3.30402 17.5272 3.30402 16.1105 5.28715L15.7724 5.76073C15.0244 6.80778 13.7687 7.36847 12.4899 7.22636L10.9821 7.05884C8.71993 6.80748 6.80846 8.71895 7.05982 10.9811L7.22734 12.4889C7.36945 13.7678 6.80876 15.0235 5.76171 15.7714L5.28813 16.1096C3.305 17.5262 3.305 20.4735 5.28813 21.8901L5.76171 22.2282C6.80876 22.9763 7.36945 24.232 7.22734 25.5108L7.05982 27.0186C6.80846 29.2807 8.71993 31.1923 10.9821 30.9408L12.4899 30.7733C13.7687 30.6313 15.0244 31.1919 15.7724 32.239L16.1105 32.7124C17.5272 34.6956 20.4745 34.6956 21.8911 32.7124L22.2292 32.239C22.9772 31.1919 24.233 30.6313 25.5118 30.7733L27.0195 30.9408C29.2817 31.1923 31.1933 29.2807 30.9418 27.0186L30.7743 25.5108C30.6322 24.232 31.1929 22.9763 32.24 22.2282L32.7134 21.8901C34.6966 20.4735 34.6966 17.5262 32.7134 16.1096L32.24 15.7714C31.1929 15.0235 30.6322 13.7678 30.7743 12.4889L30.9418 10.9811C31.1933 8.71895 29.2817 6.80748 27.0195 7.05884L25.5118 7.22636C24.233 7.36847 22.9772 6.80778 22.2292 5.76073Z" fill="#FFCEAB"/>
<path d="M20.236 25V22.588H13.612V20.896L19.624 12.274H22.45V20.554H23.908V22.588H22.45V25H20.236ZM16.204 20.554H20.236V14.632L16.204 20.554Z" fill="#FF6B00"/>
</svg>
