<svg width="38" height="38" viewBox="0 0 38 38" fill="none" xmlns="http://www.w3.org/2000/svg">
<path d="M22.2292 5.76073L21.8911 5.28715C20.4745 3.30402 17.5272 3.30402 16.1105 5.28715L15.7724 5.76073C15.0244 6.80778 13.7687 7.36847 12.4899 7.22636L10.9821 7.05884C8.71993 6.80748 6.80846 8.71895 7.05982 10.9811L7.22734 12.4889C7.36945 13.7678 6.80876 15.0235 5.76171 15.7714L5.28813 16.1096C3.305 17.5262 3.305 20.4735 5.28813 21.8901L5.76171 22.2282C6.80876 22.9763 7.36945 24.232 7.22734 25.5108L7.05982 27.0186C6.80846 29.2807 8.71993 31.1923 10.9821 30.9408L12.4899 30.7733C13.7687 30.6313 15.0244 31.1919 15.7724 32.239L16.1105 32.7124C17.5272 34.6956 20.4745 34.6956 21.8911 32.7124L22.2292 32.239C22.9772 31.1919 24.233 30.6313 25.5118 30.7733L27.0195 30.9408C29.2817 31.1923 31.1933 29.2807 30.9418 27.0186L30.7743 25.5108C30.6322 24.232 31.1929 22.9763 32.24 22.2282L32.7134 21.8901C34.6966 20.4735 34.6966 17.5262 32.7134 16.1096L32.24 15.7714C31.1929 15.0235 30.6322 13.7678 30.7743 12.4889L30.9418 10.9811C31.1933 8.71895 29.2817 6.80748 27.0195 7.05884L25.5118 7.22636C24.233 7.36847 22.9772 6.80778 22.2292 5.76073Z" fill="#FFCEAB"/>
<path d="M18.364 25.144C17.8 25.144 17.242 25.078 16.69 24.946C16.138 24.814 15.634 24.61 15.178 24.334C14.722 24.046 14.338 23.674 14.026 23.218C13.726 22.762 13.534 22.21 13.45 21.562H15.682C15.79 21.934 15.982 22.228 16.258 22.444C16.546 22.66 16.876 22.822 17.248 22.93C17.62 23.026 17.998 23.074 18.382 23.074C18.658 23.074 18.934 23.05 19.21 23.002C19.486 22.954 19.744 22.864 19.984 22.732C20.224 22.6 20.416 22.414 20.56 22.174C20.704 21.934 20.776 21.622 20.776 21.238C20.776 20.89 20.71 20.602 20.578 20.374C20.458 20.146 20.284 19.972 20.056 19.852C19.84 19.72 19.588 19.63 19.3 19.582C19.024 19.522 18.73 19.492 18.418 19.492H17.014V17.566H17.932C18.28 17.566 18.598 17.53 18.886 17.458C19.174 17.386 19.426 17.284 19.642 17.152C19.858 17.008 20.02 16.828 20.128 16.612C20.248 16.396 20.308 16.138 20.308 15.838C20.308 15.406 20.212 15.07 20.02 14.83C19.84 14.59 19.594 14.422 19.282 14.326C18.97 14.218 18.628 14.164 18.256 14.164C17.92 14.164 17.596 14.218 17.284 14.326C16.972 14.422 16.702 14.572 16.474 14.776C16.246 14.98 16.102 15.238 16.042 15.55H13.846C13.918 14.95 14.092 14.434 14.368 14.002C14.644 13.57 14.986 13.216 15.394 12.94C15.814 12.652 16.282 12.442 16.798 12.31C17.314 12.178 17.848 12.112 18.4 12.112C18.94 12.112 19.456 12.172 19.948 12.292C20.452 12.412 20.896 12.61 21.28 12.886C21.664 13.15 21.97 13.498 22.198 13.93C22.426 14.362 22.54 14.89 22.54 15.514C22.54 15.91 22.474 16.282 22.342 16.63C22.21 16.978 22.018 17.284 21.766 17.548C21.526 17.812 21.232 18.028 20.884 18.196C21.364 18.328 21.766 18.544 22.09 18.844C22.414 19.132 22.654 19.48 22.81 19.888C22.978 20.296 23.062 20.746 23.062 21.238C23.062 22.006 22.918 22.648 22.63 23.164C22.354 23.668 21.982 24.064 21.514 24.352C21.058 24.64 20.554 24.844 20.002 24.964C19.45 25.084 18.904 25.144 18.364 25.144Z" fill="#FF6B00"/>
</svg>
