<svg width="130" height="57" viewBox="0 0 130 57" fill="none" xmlns="http://www.w3.org/2000/svg">
<path d="M21.712 56.539C19.094 56.539 16.5786 56.231 14.166 55.615C11.7533 54.999 9.54597 54.0237 7.54397 52.689C5.54197 51.3543 3.87364 49.6603 2.53897 47.607C1.2043 45.5023 0.38297 42.987 0.0749698 40.061H11.009C11.3683 41.4983 12.0613 42.7047 13.088 43.68C14.166 44.604 15.4493 45.2713 16.938 45.682C18.478 46.0927 20.095 46.298 21.789 46.298C22.9183 46.298 24.022 46.1953 25.1 45.99C26.2293 45.7847 27.2303 45.4253 28.103 44.912C29.027 44.3987 29.7456 43.7057 30.259 42.833C30.7723 41.9603 31.029 40.8567 31.029 39.522C31.029 38.29 30.798 37.2633 30.336 36.442C29.874 35.6207 29.258 34.9533 28.488 34.44C27.718 33.9267 26.794 33.5673 25.716 33.362C24.6893 33.1567 23.5856 33.054 22.405 33.054H16.091V23.66H20.326C21.6606 23.66 22.867 23.5317 23.945 23.275C25.023 22.967 25.9213 22.5563 26.64 22.043C27.41 21.4783 28.0003 20.811 28.411 20.041C28.8216 19.2197 29.027 18.2957 29.027 17.269C29.027 15.729 28.6933 14.5227 28.026 13.65C27.3586 12.726 26.4346 12.0587 25.254 11.648C24.0733 11.2373 22.713 11.032 21.173 11.032C19.7356 11.032 18.3753 11.263 17.092 11.725C15.86 12.1357 14.8333 12.7517 14.012 13.573C13.1906 14.3943 12.6516 15.3953 12.395 16.576H1.69197C1.99997 13.804 2.7443 11.4427 3.92497 9.492C5.10564 7.49 6.61997 5.84733 8.46797 4.564C10.316 3.28066 12.3693 2.35666 14.628 1.792C16.938 1.176 19.325 0.867998 21.789 0.867998C24.1503 0.867998 26.409 1.12466 28.565 1.638C30.721 2.15133 32.646 2.99833 34.34 4.179C36.0853 5.30833 37.4713 6.82266 38.498 8.722C39.5246 10.6213 40.038 12.9057 40.038 15.575C40.038 17.2177 39.7556 18.7577 39.191 20.195C38.6776 21.6323 37.9076 22.9157 36.881 24.045C35.9056 25.123 34.7506 26.0213 33.416 26.74C35.418 27.3047 37.0606 28.2287 38.344 29.512C39.6273 30.7953 40.577 32.3097 41.193 34.055C41.8603 35.8003 42.194 37.674 42.194 39.676C42.194 42.9613 41.578 45.7077 40.346 47.915C39.1653 50.071 37.574 51.7907 35.572 53.074C33.57 54.306 31.3626 55.2043 28.95 55.769C26.5373 56.2823 24.1246 56.539 21.712 56.539ZM67.7026 56.616C65.136 56.616 62.749 56.308 60.5416 55.692C58.3343 55.0247 56.358 54.0237 54.6126 52.689C52.9186 51.3543 51.4813 49.6603 50.3006 47.607C49.1713 45.5537 48.4013 43.1153 47.9906 40.292H58.8476C59.1556 41.3187 59.7203 42.294 60.5416 43.218C61.363 44.142 62.3896 44.8863 63.6216 45.451C64.905 46.0157 66.3423 46.298 67.9336 46.298C69.8843 46.298 71.527 45.9643 72.8616 45.297C74.1963 44.5783 75.223 43.603 75.9416 42.371C76.6603 41.139 77.0196 39.676 77.0196 37.982C77.0196 35.4153 76.1983 33.362 74.5556 31.822C72.9643 30.2307 70.7056 29.435 67.7796 29.435C66.0856 29.435 64.4943 29.743 63.0056 30.359C61.5683 30.9237 60.1823 31.7193 58.8476 32.746H49.4536L50.4546 1.484H86.3366V11.571H60.8496L60.2336 22.659C61.7736 21.581 63.5446 20.8367 65.5466 20.426C67.6 19.964 69.6276 19.7587 71.6296 19.81C75.1716 19.9127 78.1746 20.6827 80.6386 22.12C83.1026 23.5573 84.9763 25.5593 86.2596 28.126C87.5943 30.6927 88.2616 33.6957 88.2616 37.135C88.2616 41.293 87.3376 44.835 85.4896 47.761C83.693 50.687 81.229 52.8943 78.0976 54.383C75.0176 55.8717 71.5526 56.616 67.7026 56.616ZM107.992 45.836V33.285H95.8257V23.583H107.992V11.109H117.617V23.583H129.783V33.285H117.617V45.836H107.992Z" fill="#333333"/>
</svg>
