<svg width="126" height="57" viewBox="0 0 126 57" fill="none" xmlns="http://www.w3.org/2000/svg">
<path d="M0.105243 56V46.914L15.1972 34.363C16.2752 33.439 17.5072 32.4123 18.8932 31.283C20.3306 30.1023 21.6909 28.8447 22.9742 27.51C24.3089 26.1753 25.3869 24.7637 26.2082 23.275C27.0809 21.7863 27.5172 20.2463 27.5172 18.655C27.5172 16.4477 26.8242 14.651 25.4382 13.265C24.1036 11.879 22.1272 11.186 19.5092 11.186C17.0452 11.186 15.0946 11.7507 13.6572 12.88C12.2712 13.958 11.3986 15.344 11.0392 17.038H0.413243C0.721243 13.3933 1.79924 10.3903 3.64724 8.029C5.54658 5.61633 7.93358 3.81967 10.8082 2.639C13.6829 1.45833 16.7116 0.867998 19.8942 0.867998C23.3336 0.867998 26.4649 1.50966 29.2882 2.793C32.1116 4.07633 34.3446 5.95 35.9872 8.414C37.6299 10.8267 38.4512 13.8297 38.4512 17.423C38.4512 20.503 37.8609 23.3007 36.6802 25.816C35.5509 28.28 33.9852 30.59 31.9832 32.746C29.9812 34.8507 27.7226 36.8783 25.2072 38.829L16.5832 45.836H38.3742V56H0.105243ZM63.6724 56.616C61.1057 56.616 58.7187 56.308 56.5114 55.692C54.304 55.0247 52.3277 54.0237 50.5824 52.689C48.8884 51.3543 47.451 49.6603 46.2704 47.607C45.141 45.5537 44.371 43.1153 43.9604 40.292H54.8174C55.1254 41.3187 55.69 42.294 56.5114 43.218C57.3327 44.142 58.3594 44.8863 59.5914 45.451C60.8747 46.0157 62.312 46.298 63.9034 46.298C65.854 46.298 67.4967 45.9643 68.8314 45.297C70.166 44.5783 71.1927 43.603 71.9114 42.371C72.63 41.139 72.9894 39.676 72.9894 37.982C72.9894 35.4153 72.168 33.362 70.5254 31.822C68.934 30.2307 66.6754 29.435 63.7494 29.435C62.0554 29.435 60.464 29.743 58.9754 30.359C57.538 30.9237 56.152 31.7193 54.8174 32.746H45.4234L46.4244 1.484H82.3064V11.571H56.8194L56.2034 22.659C57.7434 21.581 59.5144 20.8367 61.5164 20.426C63.5697 19.964 65.5974 19.7587 67.5994 19.81C71.1414 19.9127 74.1444 20.6827 76.6084 22.12C79.0724 23.5573 80.946 25.5593 82.2294 28.126C83.564 30.6927 84.2314 33.6957 84.2314 37.135C84.2314 41.293 83.3074 44.835 81.4594 47.761C79.6627 50.687 77.1987 52.8943 74.0674 54.383C70.9874 55.8717 67.5224 56.616 63.6724 56.616ZM103.961 45.836V33.285H91.7954V23.583H103.961V11.109H113.586V23.583H125.752V33.285H113.586V45.836H103.961Z" fill="#333333"/>
</svg>
